<svg xmlns="http://www.w3.org/2000/svg" width="100%" height="100%" viewBox="0 0 875.023 369.651" preserveAspectRatio="none">
  <defs>
    <style>
      .cls-1 {
        fill: #facfd9;
      }
    </style>
  </defs>
  <path id="Path_22" data-name="Path 22" class="cls-1" d="M4703.611-510l32.993-10.711L4752.382-510l28.689-22.187,15.779,35.862,44.468-24.386L4849.926-510h35.862l12.91-10.711L4913.042-510l11.476-10.711L4948.9-510l10.042-10.711L4974.725-510l28.689-22.187,57.378-17.214,14.345,17.214H5111l11.476-17.214h11.476l10.042,17.214,28.689-17.214h11.476l15.779,17.214,25.82-17.214s-18.648,55.944,10.042,17.214,40.165-17.214,40.165-17.214v17.214l38.73-17.214,12.91-11.476,18.648,11.476,14.345-22.951,11.475,22.951,27.255-22.951c6.813-5.738,14.345,22.951,14.345,22.951h37.3l14.344-11.476h21.517V-549.4h37.3l17.213-22.951v11.476l37.3-11.476v347.141l-22.952,12.91-14.344-12.91-17.213,21.517-37.3-21.517-57.378,21.517-30.124-21.517L5327.6-203.694l-12.91-21.517s-50.207,24.386-45.9,21.517-12.91-31.558-24.386-21.517-44.469,0-44.469,0l-27.254-10.041L5151.164-212.3s4.3-37.3-28.689-22.951-61.682,10.041-61.682,10.041H5027.8s8.607-17.214-37.3-10.041-57.379,0-57.379,0H4898.7l-35.862-17.214-38.731,17.214s2.869-28.689-35.861-17.214-84.633,0-84.633,0Z" transform="translate(-4703.611 573.11)"/>
</svg>
