<svg xmlns="http://www.w3.org/2000/svg" width="100%" height="100%" viewBox="0 0 2032 488.613" preserveAspectRatio="none">
  <defs>
    <style>
      .cls-1 {
        fill: #63c8c4;
      }
    </style>
  </defs>
  <path id="Path_23" data-name="Path 23" class="cls-1" d="M3825,1180.521c45.17-9.374,66.509-28.122,66.509-28.122l33.193,28.122,49.789-14.061v14.061l61.644,14.061H4055.1l21.338-28.121,21.339,14.061,21.338-28.122,40.306,28.122s16.6,14.061,23.709-14.061,52.16-28.122,52.16-28.122v28.122l33.193-28.122V1152.4l40.306-14.061H4332.5l16.6,14.061,35.563-14.061s26.08-25.778,35.563-14.061,49.79,28.122,49.79,28.122l21.338-28.122s-16.6,18.748,23.709,14.061,90.1,0,90.1,0L4650.2,1152.4l23.709-14.061,56.9,14.061,23.709-14.061,49.79,14.061,40.306-14.061,42.676,28.122,35.564-14.061v-28.122l37.935,14.061h56.9V1152.4l42.677-14.061,40.306,14.061,30.822-14.061,64.015,14.061h21.339l23.709-28.122,40.306,14.061,52.16-14.061,16.6,14.061,35.564-14.061,37.935,14.061,35.564,14.061,21.338-28.122,56.9,14.061H5579.6l21.338-14.061,45.047,14.061,28.451-30.465,45.047,16.4,28.451-32.808,40.306,16.4,26.08,16.4,42.676-16.4v455.632l-27.858-20.92s-16.6,20.748-28.451,20.92-37.935-20.92-37.935-20.92-17.781,23.091-14.818,20.92-28.451-20.92-28.451-20.92l-45.047,37.5-73.5-37.5-34.971,20.92h-56.9l-29.043-20.92-21.338,20.92-35.564-20.92-73.5,20.92s-16-30.293-44.455-20.92-55.716,4.687-64.607,0-30.229,32.465-65.793,20.92-43.27,0-43.27,0-24.3-23.263-30.822-20.92-40.306,20.92-40.306,20.92h-27.858s-10.669-25.607-43.27-20.92-66.385,20.92-66.385,20.92l-35.564-20.92-25.487,20.92H4816.76l-26.081-20.92-36.156,20.92-80.611-20.92-23.709,20.92-72.906-20.92-49.789,37.5-57.5-37.5-62.832,13.279-36.154,7.641h-80.611l-90.095-20.92-40.9,20.92-82.982-20.92h-40.305l-144.626,20.92L3825,1521.495Z" transform="translate(-3825 -1091.469)"/>
</svg>
