<svg xmlns="http://www.w3.org/2000/svg" width="45.331" height="41.366" viewBox="0 0 45.331 41.366">
  <path id="Icon_material-account-circle" data-name="Icon material-account-circle" d="M25.666,3C13.154,3,3,12.266,3,23.683S13.154,44.366,25.666,44.366,48.331,35.1,48.331,23.683,38.177,3,25.666,3Zm0,6.2c3.762,0,6.8,2.772,6.8,6.2s-3.037,6.2-6.8,6.2-6.8-2.772-6.8-6.2S21.9,9.2,25.666,9.2Zm0,29.37a16.776,16.776,0,0,1-13.6-6.66c.068-4.116,9.066-6.37,13.6-6.37,4.51,0,13.531,2.254,13.6,6.37A16.776,16.776,0,0,1,25.666,38.575Z" transform="translate(-3 -3)"/>
</svg>
