<svg xmlns="http://www.w3.org/2000/svg" width="39.947" height="37.122" viewBox="0 0 39.947 37.122">
  <path id="Icon_awesome-shopping-cart" data-name="Icon awesome-shopping-cart" d="M36.626,21.847,39.9,6.766A1.722,1.722,0,0,0,38.281,4.64H11.041l-.636-3.249A1.684,1.684,0,0,0,8.775,0H1.664A1.7,1.7,0,0,0,0,1.74V2.9A1.7,1.7,0,0,0,1.664,4.64H6.511l4.872,24.9a4.093,4.093,0,0,0-1.951,3.521,3.975,3.975,0,0,0,3.884,4.06,3.975,3.975,0,0,0,3.884-4.06,4.139,4.139,0,0,0-1.167-2.9H30.572a4.14,4.14,0,0,0-1.167,2.9,3.888,3.888,0,1,0,7.767,0,4.079,4.079,0,0,0-2.19-3.655l.383-1.76a1.722,1.722,0,0,0-1.623-2.126H15.127l-.454-2.32H35A1.682,1.682,0,0,0,36.626,21.847Z"/>
</svg>
