<svg xmlns="http://www.w3.org/2000/svg" width="45.417" height="45.142" viewBox="0 0 45.417 45.142">
  <path id="Icon_ionic-ios-search" data-name="Icon ionic-ios-search" d="M49.385,46.368,36.753,33.7A17.955,17.955,0,0,0,22.608,4.493,17.988,17.988,0,1,0,34.021,36.449L46.57,49.036a1.939,1.939,0,0,0,2.815-2.668ZM22.608,36.6a14.172,14.172,0,0,1-10.053-4.137,14.039,14.039,0,0,1,0-19.956,14.284,14.284,0,0,1,20.106,0,14.039,14.039,0,0,1,0,19.956A14.172,14.172,0,0,1,22.608,36.6Z" transform="translate(-4.5 -4.493)"/>
</svg>
