<svg xmlns="http://www.w3.org/2000/svg" width="100%" height="100%" viewBox="0 0 50.408 48.918">
  <path id="Icon_metro-facebook" data-name="Icon metro-facebook" d="M44.578,1.928H10.971a8.28,8.28,0,0,0-8.4,8.154v32.61a8.28,8.28,0,0,0,8.4,8.154h16.8v-21.4h-6.3V23.33h6.3V18.744A7.762,7.762,0,0,1,35.651,11.1h7.876v6.115H35.651a1.552,1.552,0,0,0-1.575,1.529V23.33H42.74l-1.575,6.115H34.076v21.4h10.5a8.28,8.28,0,0,0,8.4-8.154V10.082a8.28,8.28,0,0,0-8.4-8.154Z" transform="translate(-2.57 -1.928)"/>
</svg>
