<svg xmlns="http://www.w3.org/2000/svg" width="2034.637" height="517.647" viewBox="0 0 2034.637 517.647">
  <path id="Path_24" data-name="Path 24" d="M3825,7105.433l117.27-9.84,106.833,9.84,33.737-9.84,70.285,9.84,63.256-9.84H4269.8l50.6,9.84h33.737l70.285-9.84h54.822s-25.3,15.462,32.332,9.84,101.21,14.057,146.192,0,102.615,8.434,136.352,0a369.02,369.02,0,0,1,64.662-9.84s30.925,19.68,68.879,9.84,98.4,0,98.4,0-30.925-18.274,29.52-9.84,95.587-8.434,95.587-8.434l22.491,18.274,35.142-9.84h75.908l23.9,9.84,42.171-9.84,33.736-19.68,42.171,11.246s25.3-21.788,73.1-11.246,88.559-7.731,88.559-7.731l46.388,7.731s50.6,28.817,74.5,11.246,66.068-11.246,66.068-11.246h37.954l46.388,11.246v496.913L3825,7585.83Z" transform="translate(-3825 -7068.183)" fill="#facfd9"/>
</svg>
