<svg xmlns="http://www.w3.org/2000/svg" width="100%" height="100%" viewBox="0 0 56.516 56.431">
  <path id="Icon_awesome-instagram" data-name="Icon awesome-instagram" d="M28.259,44.922A14.468,14.468,0,1,1,42.745,30.453,14.455,14.455,0,0,1,28.259,44.922Zm0-23.875a9.406,9.406,0,1,0,9.418,9.406A9.429,9.429,0,0,0,28.259,21.047ZM46.717,45.513a3.379,3.379,0,1,0-3.379,3.375A3.369,3.369,0,0,0,46.717,45.513Zm9.595-3.425c-.214,4.521-1.248,8.525-4.564,11.824s-7.313,4.332-11.839,4.558c-4.665.264-18.647.264-23.312,0-4.514-.214-8.523-1.247-11.839-4.546S.42,46.622.193,42.1c-.265-4.659-.265-18.624,0-23.283C.408,14.3,1.442,10.293,4.757,6.994S12.07,2.663,16.6,2.436c4.665-.264,18.647-.264,23.312,0,4.526.214,8.536,1.247,11.839,4.558s4.337,7.3,4.564,11.824c.265,4.659.265,18.611,0,23.27ZM50.285,13.819a9.529,9.529,0,0,0-5.371-5.364C41.195,6.982,32.369,7.322,28.259,7.322S15.31,6.994,11.6,8.455a9.529,9.529,0,0,0-5.371,5.364C4.757,17.534,5.1,26.348,5.1,30.453S4.77,43.385,6.233,47.087A9.529,9.529,0,0,0,11.6,52.452c3.719,1.473,12.545,1.133,16.655,1.133s12.948.327,16.655-1.133a9.529,9.529,0,0,0,5.371-5.364c1.475-3.715,1.135-12.529,1.135-16.634S51.76,17.521,50.285,13.819Z" transform="translate(0.005 -2.238)"/>
</svg>
