<svg xmlns="http://www.w3.org/2000/svg" width="100%" height="100%" viewBox="0 0 1917 517.647" preserveAspectRatio="none">
  <defs>
    <style>
      .cls-1 {
        fill: #facfd9;
      }
    </style>
  </defs>
  <path id="Path_24" data-name="Path 24" class="cls-1" d="M3825,7105.433l110.49-9.84,100.656,9.84,31.786-9.84,66.221,9.84,59.6-9.84h50.328l47.679,9.84h31.787l66.221-9.84h51.652s-23.838,15.462,30.462,9.84,95.358,14.057,137.74,0,96.682,8.434,128.469,0a328.862,328.862,0,0,1,60.923-9.84s29.137,19.68,64.9,9.84,92.709,0,92.709,0-29.137-18.274,27.813-9.84,90.061-8.434,90.061-8.434l21.19,18.274,33.11-9.84h71.519l22.515,9.84,39.732-9.84,31.786-19.68,39.732,11.246s23.84-21.788,68.87-11.246,83.438-7.731,83.438-7.731l43.706,7.731s47.679,28.817,70.194,11.246,62.248-11.246,62.248-11.246h35.759L5742,7087.159v496.913l-1917,1.757Z" transform="translate(-3825 -7068.183)"/>
</svg>
