<svg xmlns="http://www.w3.org/2000/svg" width="100%" height="100%" viewBox="0 0 2579.952 336.647" preserveAspectRatio="none">
  <defs>
    <style>
      .cls-1 {
        fill: #aae2df;
      }
    </style>
  </defs>
  <path id="Path_25" data-name="Path 25" class="cls-1" d="M3825,7092.408l148.7-6.4,135.465,6.4,42.779-6.4,89.122,6.4,80.21-6.4h67.732l64.167,6.4h42.779l89.122-6.4h69.515s-32.082,10.056,41,6.4,128.336,9.142,185.374,0,130.118,5.485,172.9,0,81.993-6.4,81.993-6.4,39.212,12.8,87.339,6.4,124.771,0,124.771,0-39.213-11.884,37.432-6.4,121.206-5.484,121.206-5.484l28.519,11.884,44.561-6.4h96.254l30.3,6.4,53.474-6.4,42.777-12.8,53.474,7.313s32.085-14.17,92.688-7.313,112.294-5.028,112.294-5.028l58.821,5.028s64.166,18.74,94.468,7.313,83.776-7.313,83.776-7.313h48.126l58.82,7.313v323.162L3825,7404.83Z" transform="translate(-3825 -7068.183)"/>
</svg>
