<svg xmlns="http://www.w3.org/2000/svg" width="100%" height="100%" viewBox="0 0 36.414 56.431">
  <path id="Icon_awesome-pinterest-p" data-name="Icon awesome-pinterest-p" d="M19.345.457C9.616.457,0,8.191,0,20.707c0,7.96,3.755,12.482,6.031,12.482.939,0,1.479-3.121,1.479-4,0-1.051-2.247-3.29-2.247-7.666,0-9.09,5.8-15.535,13.314-15.535,6.458,0,11.237,4.376,11.237,12.414,0,6-2.02,17.265-8.563,17.265-2.361,0-4.381-2.035-4.381-4.952,0-4.274,2.5-8.412,2.5-12.822,0-7.485-8.9-6.128-8.9,2.917a15.54,15.54,0,0,0,.91,5.732C10.071,33.257,7.4,43.263,7.4,50.183c0,2.137.256,4.24.427,6.377.322.43.161.384.654.17,4.779-7.8,4.609-9.328,6.771-19.538a7.42,7.42,0,0,0,6.572,4.07c10.071,0,14.594-11.7,14.594-22.251C36.414,7.784,28.278.457,19.345.457Z" transform="translate(0 -0.457)"/>
</svg>
