<svg xmlns="http://www.w3.org/2000/svg" width="100%" height="100%" viewBox="0 0 52 52.918">
  <path id="Icon_awesome-twitter-square" data-name="Icon awesome-twitter-square" d="M46.429,2.25H5.571A5.623,5.623,0,0,0,0,7.92V49.5a5.623,5.623,0,0,0,5.571,5.67H46.429A5.623,5.623,0,0,0,52,49.5V7.92A5.623,5.623,0,0,0,46.429,2.25ZM40.753,21.007c.023.331.023.673.023,1,0,10.241-7.661,22.041-21.659,22.041A21.288,21.288,0,0,1,7.429,40.58a15.763,15.763,0,0,0,1.834.094,15.1,15.1,0,0,0,9.448-3.307A7.641,7.641,0,0,1,11.6,31.993a8.066,8.066,0,0,0,3.436-.142,7.715,7.715,0,0,1-6.094-7.607v-.094a7.508,7.508,0,0,0,3.436.98,7.859,7.859,0,0,1-2.356-10.359,21.494,21.494,0,0,0,15.693,8.1,7.722,7.722,0,0,1,7.429-9.52A7.524,7.524,0,0,1,38.7,15.8a14.76,14.76,0,0,0,4.829-1.866A7.7,7.7,0,0,1,40.184,18.2a14.943,14.943,0,0,0,4.388-1.2A16.182,16.182,0,0,1,40.753,21.007Z" transform="translate(0 -2.25)"/>
</svg>
